<?xml version="1.0" encoding="UTF-8" standalone="no"?>
<svg width="100%" height="100%" viewBox="0 0 1024 695" version="1.1" xmlns="http://www.w3.org/2000/svg" style="fill-rule:evenodd;clip-rule:evenodd;">
  <style>
    .bee { animation: bob 2s ease-in-out infinite; }
    .left-wing {
      transform-origin: 228px 295px;
      animation: flap-left 130ms ease-in-out infinite;
    }
    .right-wing {
      transform-origin: 808px 295px;
      animation: flap-right 130ms ease-in-out infinite;
    }
    @keyframes bob {
      0%, 100% { transform: translateY(0); }
      50% { transform: translateY(-14px); }
    }
    @keyframes flap-left {
      0%, 100% { transform: rotate(-8deg); }
      50% { transform: rotate(10deg); }
    }
    @keyframes flap-right {
      0%, 100% { transform: rotate(8deg); }
      50% { transform: rotate(-10deg); }
    }
  </style>

  <g class="bee">
    <!-- ===== LEFT WING ===== -->
    <g class="left-wing">
      <!-- teal outer -->
      <path d="M108.5,167L113.5,168L230,250.5L223,296L207.5,289L52,194.5L108.5,167ZM109,169L107,170L104,171L95,175L91,177L90,179L89,178L71,187L68,189L61,191L57,196L83,211L84,213L116,231L117,233L123,235L124,237L169,263L170,265L179,268L218,293L222,293L221,289L222,286L225,266L225,264L227,259L226,256L227,254L227,252L204,234L202,232L191,225L189,224L168,209L166,208L157,201L155,199L140,189L136,187L123,177L121,175L109,169Z" style="fill:rgb(79,205,204);fill-rule:nonzero;stroke:rgb(79,205,204);stroke-width:1px;"/>
      <path d="M49.5,201L129,249.5L150,332L135.5,326L76,290.5L49.5,201ZM54,207L53,210L78,291L131,320L132,322L135,323L137,323L137,325L146,329L147,326C144.333,324 143.667,320.667 145,316L144,316L140,298L140,296L135,285L129,255L124,247L119,245L116,244L86,225L84,223L54,207Z" style="fill:rgb(79,205,204);fill-rule:nonzero;stroke:rgb(79,205,204);stroke-width:1px;"/>
      <path d="M138.5,255L222,304L220,337L159.5,332L156,329.5L138.5,255ZM143,260L141,262L143,271L143,273L147,287L149,291L148,293L157,322L156,325L157,328L160,330L176,332L179,331L185,332L187,332L205,335L209,334L217,335L219,328L218,324L220,319L219,316L220,312L219,308L217,303L206,297L204,295L186,285L184,285L183,283L179,281L177,279L146,261L143,260Z" style="fill:rgb(79,205,204);fill-rule:nonzero;stroke:rgb(79,205,204);stroke-width:1px;"/>
      <!-- cyan inner -->
      <path d="M108.5,169L115,171.5L116.5,173L121,175L122.5,177L135.5,187L139.5,189L155,199L156.5,201L166,207.5L167.5,209L189,223.5L190.5,225L202,232L203.5,234L227,251.5L227,253.5L226,255.5L227,258.5L225,263.5L225,265.5L222,285.5L221,288.5L222,292.5L217.5,293L178.5,268L170,265L168.5,263L124,236.5L122.5,235L117,233L115.5,231L84,213L82.5,211L57,195.5L60.5,191L68,189L70.5,187L88.5,178L90,178.5L90.5,177L94.5,175L103.5,171L106.5,170L108.5,169Z" style="fill:rgb(18,233,235);fill-rule:nonzero;stroke:rgb(18,233,235);stroke-width:1px;"/>
      <path d="M53.5,207L84,223L85.5,225L115.5,244L118.5,245L124,247L125.5,250L127,249.5L127,251.5L134,272.5L135,284.5L140,295.5L140,297.5L143.5,316L145,315.5C143.667,320.833 144.333,324.167 147,325.5L145.5,329L137,325L136.5,323L134.5,323L132,321.5L130.5,320L78,291L53,209.5L53.5,207Z" style="fill:rgb(18,233,235);fill-rule:nonzero;stroke:rgb(18,233,235);stroke-width:1px;"/>
      <path d="M142.5,260L145.5,261L177,279L178.5,281L183,283L183.5,285L185.5,285L204,295L205.5,297L217,303L219,307.5L220,311.5L219,315.5L220,318.5L218,323.5L219,327.5L216.5,335L208.5,334L204.5,335L186.5,332L184.5,332L178.5,331L175.5,332L159.5,330L157,327.5L156,324.5L157,321.5L148,292.5L149,290.5L147,286.5L143,272.5L143,270.5L141,261.5L142.5,260Z" style="fill:rgb(18,233,235);fill-rule:nonzero;stroke:rgb(18,233,235);stroke-width:1px;"/>
      <!-- pale accents -->
      <path d="M107.5,166L121.5,172L211.5,237L226,245L227.5,248L230,250L113.5,168L108.5,167L52,194.5L222,296L221.5,298L160.5,261L156.5,259L124,241L122.5,238L51,194.5L52.5,193L107.5,166Z" style="fill:rgb(165,223,220);fill-rule:nonzero;stroke:rgb(165,223,220);stroke-width:1px;"/>
      <path d="M48,200L76,215L78.5,217L131,249.5L132,257.5L131,257.5L126.5,247L49.5,201L49,203.5L75,288.5L79.5,294L149.5,332L151,331.5L146.5,333L75,291.5L50,213.5L48,200Z" style="fill:rgb(165,223,220);fill-rule:nonzero;stroke:rgb(165,223,220);stroke-width:1px;"/>
      <path d="M137,254L149.5,259L220.5,303L222,302.5L219.5,304L138.5,255L138,258.5L157.5,331L220,337L219.5,340L219,338L208.5,337L206.5,337L164.5,334L155,330.5L142,276.5L139,271.5L140,269.5L137,254Z" style="fill:rgb(165,223,220);fill-rule:nonzero;stroke:rgb(165,223,220);stroke-width:1px;"/>
      <path d="M132.5,259L145,302.5L150,329.5L149,329.5L132.5,259Z" style="fill:rgb(165,223,220);fill-rule:nonzero;stroke:rgb(165,223,220);stroke-width:1px;"/>
    </g>

    <!-- ===== RIGHT WING ===== -->
    <g class="right-wing">
      <!-- teal outer -->
      <path d="M925.5,167L984,194.5L814.5,297L806,248.5L807,248.5L808.5,250L925.5,167ZM924,169L923,172L918,174L916,177L910,180L908,182L902,186L898,188L896,191L858,217L856,219L844,227L842,229L825,241L813,249L811,251L809,255L811,261L811,263C809.667,267.667 810.333,269.667 813,269L814,277L813,281L817,294L838,282L839,279L859,269L860,266L879,257L880,255L898,245L899,243L903,242L905,242L916,235L917,232L931,225L933,225L936,222L976,199L979,195L978,193L930,169L924,169Z" style="fill:rgb(79,205,204);fill-rule:nonzero;stroke:rgb(79,205,204);stroke-width:1px;"/>
      <path d="M985.5,202L987,204.5L958.5,293L892.5,331L887,332L908.5,248L985.5,202ZM983,206L978,209L973,213L972,212L950,226L948,228L938,233L936,235L930,237L928,240L918,245L916,247L911,249L907,254L902,279L902,281L892,315L893,317L890,329L910,318L912,316L919,314L920,312L944,300L954,294L956,291L959,289L962,279L962,277L969,258L969,256L975,237C974.333,233.667 975,232.333 977,233L978,228L978,226L981,218L981,216L984,208L983,206Z" style="fill:rgb(79,205,204);fill-rule:nonzero;stroke:rgb(79,205,204);stroke-width:1px;"/>
      <path d="M896.5,256L898,258.5L878.5,332L816.5,337L816,334.5L815,304L896.5,256ZM891,261L850,287C846.667,286.333 845.333,287 846,289L838,293L836,295L823,301L817,311L818,315L817,324L819,334L822,335L843,333L845,333L857,331L861,332L878,329L879,327C878.333,323.667 879,322.333 881,323L882,311L891,281C889.667,276.333 890.333,274.333 893,275L894,265L895,262L891,261Z" style="fill:rgb(79,205,204);fill-rule:nonzero;stroke:rgb(79,205,204);stroke-width:1px;"/>
      <!-- cyan inner -->
      <path d="M924,169L929.5,169L978,192.5L979,194.5L976,199L936,221.5L933,224.5L930.5,225L917,232L915.5,235L904.5,242L902.5,242L899,243L897.5,245L880,255L878.5,257L860,266L858.5,269L839,279L837.5,282L816.5,294L813,280.5L814,276.5L813,269C810.667,269.733 810,267.567 811,262.5L811,260.5L809,254.5L811,250.5L812.5,249L822,242.5L824.5,241L842,229L843.5,227L856,219L857.5,217L896,191L897.5,188L901.5,186L908,181.5L909.5,180L916,177L917.5,174L922.5,172L924,169Z" style="fill:rgb(18,233,235);fill-rule:nonzero;stroke:rgb(18,233,235);stroke-width:1px;"/>
      <path d="M982.5,206L984,207.5L981,215.5L981,217.5L978,225.5L978,227.5L977,233C974.8,232.133 974.133,233.3 975,236.5L969,255.5L969,257.5L962,276.5L962,278.5L959,289L956,290.5L953.5,294L943.5,300L920,312L918.5,314L912,316L909.5,318L890,329L893,316.5L892,314.5L902,280.5L902,278.5L907,253.5L910.5,249L916,247L917.5,245L928,240L929.5,237L936,235L937.5,233L948,228L949.5,226L971.5,212L973,212.5L977.5,209L982.5,206Z" style="fill:rgb(18,233,235);fill-rule:nonzero;stroke:rgb(18,233,235);stroke-width:1px;"/>
      <path d="M890.5,261L895,261.5L894,264.5L893,275C890.333,274.067 889.667,275.9 891,280.5L882,310.5L881,323C878.8,322.133 878.133,323.3 879,326.5L878,329L860.5,332L856.5,331L844.5,333L842.5,333L821.5,335L819,334L817,323.5L818,314.5L817,310.5L822.5,301L836,295L837.5,293L846,289C845.133,286.8 846.3,286.133 849.5,287L890.5,261Z" style="fill:rgb(18,233,235);fill-rule:nonzero;stroke:rgb(18,233,235);stroke-width:1px;"/>
      <!-- pale accents -->
      <path d="M924.5,166L929.5,166L955.5,178L986,194.5L979,199L976.5,201L825,292L824.5,294L821.5,295L815,297L814.5,301L814,297.5L984,194.5L925.5,167L807.5,250L810.5,246L883,195.5L884.5,194L924.5,166Z" style="fill:rgb(165,223,220);fill-rule:nonzero;stroke:rgb(165,223,220);stroke-width:1px;"/>
      <path d="M987.5,200L988,205.5L962,290.5L957.5,295L892.5,332L886,333L891.5,308L892,311.5L887,332L892.5,331L960,291.5L987,202L907,249.5L892.5,307L892,301.5L905,252.5L909.5,246L987.5,200Z" style="fill:rgb(165,223,220);fill-rule:nonzero;stroke:rgb(165,223,220);stroke-width:1px;"/>
      <path d="M897.5,254L900,255.5L882,329.5L878.5,333L859.5,335L857.5,335L828.5,338L824.5,337L820.5,338L817,337L816.5,341L816,337.5L880,330.5L898,256L816.5,304L819.5,300L897.5,254Z" style="fill:rgb(165,223,220);fill-rule:nonzero;stroke:rgb(165,223,220);stroke-width:1px;"/>
    </g>

    <!-- ===== BODY ===== -->
    <g class="body">
      <!-- teal body hexagons -->
      <path d="M365.5,275L429,312.5L429,383.5L427.5,385L364.5,420L304,383.5L304.5,372L306,384L367.5,418L416.5,390L427,381.5L428,363.5L427,313.5L423.5,309L412,304L410.5,302L366.5,277L362.5,279L306,311L305,315.5L305,317.5L306,331.5L305,334.5L305,336.5L306,342.5L306,344.5L305,353.5L306,355.5L305,359.5L306,363.5L304.5,370L304,311.5L365.5,275Z" style="fill:rgb(79,205,204);fill-rule:nonzero;stroke:rgb(79,205,204);stroke-width:1px;"/>
      <path d="M668.5,275L732,310L733,383.5L668.5,420L608,383.5L607,372.5L608,311.5L610.5,309L668.5,275ZM670,277L630,300L628,302L615,308L609,316L610,319L609,323L609,325L610,329L609,334L610,336L610,338L609,340L609,342L610,355L609,359L610,361L609,368L609,370L610,373L609,378L610,383L669,418L673,418L729,385L731,381L730,312L718,304L716,302L670,277Z" style="fill:rgb(79,205,204);fill-rule:nonzero;stroke:rgb(79,205,204);stroke-width:1px;"/>
      <!-- teal body details -->
      <path d="M148.5,339L151.5,339L170,356L171.5,358L185.5,372L200.5,372L203.5,371L207.5,372L221,371L225,400L176.5,418L115,395L104,353L148.5,339ZM148,341L137,345L135,345L107,355L110,366L109,368L117,394L143,403L145,403L161,410C163.667,409.333 164.667,410 164,412L175,415L207,406L222,398L221,394L222,392L220,386L221,384L219,377L219,373L204,373L195,374L192,373L187,374L183,372L164,353L162,352L156,347L154,344L148,341Z" style="fill:rgb(79,205,204);fill-rule:nonzero;stroke:rgb(79,205,204);stroke-width:1px;"/>
      <path d="M163,339L220,344L221,364.5L219.5,364L214.5,365L210.5,364L207.5,365L186.5,364L163,340.5L163,339ZM168,341L170,345L173,347L175,351C179,358.333 186,362.667 196,364L211,363L213,363L218,362L219,360L218,353L219,350L218,346L203,343L200,344L168,341Z" style="fill:rgb(79,205,204);fill-rule:nonzero;stroke:rgb(79,205,204);stroke-width:1px;"/>
      <path d="M869.5,339L874,340.5L870,343.5L866.5,348L865,349.5L858,355.5L848.5,365L821.5,365L816,364L816.5,341L817,344L819.5,343L821.5,343L869.5,339ZM866,341L864,343L860,342L855,343L852,342L840,344L835,343L828,344L826,344L818,348L819,350L818,353C817.333,357.667 818.333,361 821,363L831,362L847,364L863,349L865,347L867,344L866,341Z" style="fill:rgb(79,205,204);fill-rule:nonzero;stroke:rgb(79,205,204);stroke-width:1px;"/>
      <path d="M884.5,339L932,353.5L920.5,395L858.5,418L812.5,401L811,401.5L815.5,368L816.5,372L823.5,371L825.5,371L850.5,372L855,368.5L860.5,362L882,343L884.5,339ZM884,341L884,343L876,350L871,356L869,358L868,357L867,359L861,364L856,370L855,371L852,372L848,374L844,373L835,374L833,374L830,372L819,373L817,377L814,400L857,415L867,414L919,394L927,370C925.667,364.667 926.333,362.333 929,363L930,358L929,354L928,354L914,348L884,341Z" style="fill:rgb(79,205,204);fill-rule:nonzero;stroke:rgb(79,205,204);stroke-width:1px;"/>
      <!-- teal mouth -->
      <path d="M461.5,442L466.5,443C473.5,452 482.5,459 493.5,464C502.567,467.933 514.067,469.433 528,468.5L523.5,469L513.5,470C501.633,468.8 491.8,465.8 484,461L482.5,459L470,448.5L468.5,447L460.5,444L455,448.5L454,453.5L466.5,468L478.5,477L496.5,484L498.5,483L504.5,486L519.5,487L521.5,486L523.5,486L535.5,484L537.5,484L560,476L561.5,474L572,467L573.5,464L578,460.5L582,450.5L576.5,444L572.5,445L570.5,445L568,446.5L566.5,448L564,452L560.5,454C553.567,462.067 543.233,466.733 529.5,468L529.5,467C545.433,464.933 557.267,458.767 565,448.5L568.5,444L574.5,442L582,446.5L583,456.5L574.5,466C561.033,480.867 540.033,488.2 511.5,488C486.367,484.533 467.533,474.7 455,458.5L453,449.5L455,445L461.5,442Z" style="fill:rgb(79,205,204);fill-rule:nonzero;stroke:rgb(79,205,204);stroke-width:1px;"/>
      <!-- cyan body hexagons -->
      <path d="M364.5,277L367.5,278L412,302L413.5,304L425,310.5L427,313.5L428,363.5L427,381.5L422.5,386L375.5,414L364.5,418L306,384L304,370.5L306,360.5L305,356.5L306,354.5L305,346.5L306,344.5L305,341.5L306,335.5L305,332.5L306,329.5L305,317.5L305,315.5L306,311L364.5,277Z" style="fill:rgb(18,233,235);fill-rule:nonzero;stroke:rgb(18,233,235);stroke-width:1px;"/>
      <path d="M669.5,277L716,302L717.5,304L730,311.5L731,380.5L729,385L672.5,418L668.5,418L610,382.5L609,377.5L610,372.5L609,369.5L609,367.5L610,360.5L609,358.5L610,354.5L609,341.5L609,339.5L610,337.5L610,335.5L609,333.5L610,328.5L609,324.5L609,322.5L610,318.5L609,315.5L614.5,308L628,302L629.5,300L669.5,277Z" style="fill:rgb(18,233,235);fill-rule:nonzero;stroke:rgb(18,233,235);stroke-width:1px;"/>
      <!-- cyan body details -->
      <path d="M147.5,341L154,343.5L156,346.5L162,351.5L163.5,353L171,359.5L175.5,365L178,366.5L182.5,372L186.5,374L191.5,373L194.5,374L203.5,373L218.5,373L219,374.5L219,376.5L221,383.5L220,385.5L222,391.5L221,393.5L222,397.5L206.5,406L174.5,415L164,412C164.867,409.8 163.7,409.133 160.5,410L144.5,403L142.5,403L117,394L109,367.5L110,365.5L107,355L134.5,345L136.5,345L147.5,341Z" style="fill:rgb(18,233,235);fill-rule:nonzero;stroke:rgb(18,233,235);stroke-width:1px;"/>
      <path d="M168,341L199.5,344L202.5,343L218,346L219,349.5L218,352.5L219,359.5L218,362L212.5,363L210.5,363L195.5,364C185.5,362.667 178.667,358.167 175,350.5L172.5,347L169.5,345L168,341Z" style="fill:rgb(18,233,235);fill-rule:nonzero;stroke:rgb(18,233,235);stroke-width:1px;"/>
      <path d="M865.5,341L867,343.5L864.5,347L863,348.5L846.5,364L830.5,362L820.5,363C817.833,361.333 817,357.833 818,352.5L819,349.5L818,347.5L825.5,344L827.5,344L834.5,343L839.5,344L851.5,342L854.5,343L859.5,342L863.5,343L865.5,341Z" style="fill:rgb(18,233,235);fill-rule:nonzero;stroke:rgb(18,233,235);stroke-width:1px;"/>
      <path d="M884,341L913.5,348L927.5,354L929,353.5L930,357.5L928.5,363C926.5,362.667 926,364.833 927,369.5L918.5,394L866.5,414L856.5,415L814,400L817,376.5L818.5,373L829.5,372L832.5,374L834.5,374L843.5,373L847.5,374L851.5,372L854.5,371L856,369.5L860.5,364L867,358.5L867.5,357L869,357.5L870.5,356L875.5,350L884,342.5L884,341Z" style="fill:rgb(18,233,235);fill-rule:nonzero;stroke:rgb(18,233,235);stroke-width:1px;"/>
      <!-- cyan mouth -->
      <path d="M460.5,444L470,447L477.5,456L484,459L485.5,461C493.367,466.467 503.7,469.467 516.5,470L523.5,469L528.5,468L539.5,467L562,454L564,450.5L568,448L569.5,445L571.5,444L573.5,444L581,448.5L582,454.5L574.5,464L572,465.5L570.5,467L560,474C560.867,476.2 559.7,476.867 556.5,476L536.5,485L534.5,485L522.5,487L520.5,486L518.5,486C509.1,487.4 502.1,486.4 497.5,483L494.5,482L478.5,477L462,463.5L454,451.5L458.5,445L460.5,444Z" style="fill:rgb(18,233,235);fill-rule:nonzero;stroke:rgb(18,233,235);stroke-width:1px;"/>
      <!-- pale body accents -->
      <path d="M887.5,337L933,352L933,359.5L924,391.5L920.5,396L860.5,418L860.5,417L922,393.5L932,353.5L884.5,339L882,343L855,367.5L853.5,370L850.5,372L832.5,372L825.5,371L823.5,371L816.5,372L817.5,370L835.5,371L841.5,370L844.5,371L853,369L859.5,361L861,359.5L870,352.5L874.5,347L878,344.5L879.5,343L887.5,337Z" style="fill:rgb(165,223,220);fill-rule:nonzero;stroke:rgb(165,223,220);stroke-width:1px;"/>
      <path d="M146.5,338L153.5,339L180,363L185.5,370L195.5,371L220,370L219.5,366L186.5,366L184,365L181.5,361L179,359.5L171.5,350L161,340.5L160,338.5L170.5,338L199.5,341L201.5,341L218.5,343L220,342.5L216.5,344L163,339L186.5,364L207.5,365L210.5,364L215.5,365L219.5,364L221,371L204.5,372L201.5,371L185.5,372L170,358L168.5,356L151.5,339L148.5,339L104,353L113,388.5L112,388.5L103,352L146.5,338Z" style="fill:rgb(165,223,220);fill-rule:nonzero;stroke:rgb(165,223,220);stroke-width:1px;"/>
      <path d="M865.5,338L867.5,339L876,338L872,345L860,355.5L857.5,359L856,360.5L848.5,366L818.5,366L816,365.5L820.5,364L848.5,365L858,357L861.5,352L865,349.5L866.5,348L871.5,342L874,340.5L869.5,339L820.5,344L818.5,344L817,342L853.5,339L855.5,340L865.5,338Z" style="fill:rgb(165,223,220);fill-rule:nonzero;stroke:rgb(165,223,220);stroke-width:1px;"/>
      <path d="M113.5,390L115,395L177,418.5L175.5,418L114,394.5L113.5,390Z" style="fill:rgb(165,223,220);fill-rule:nonzero;stroke:rgb(165,223,220);stroke-width:1px;"/>
      <path d="M223.5,400L225,401.5L221.5,403L178.5,418L178.5,417L223.5,400Z" style="fill:rgb(165,223,220);fill-rule:nonzero;stroke:rgb(165,223,220);stroke-width:1px;"/>
      <path d="M813.5,401L858,417.5L854.5,418L813.5,401Z" style="fill:rgb(165,223,220);fill-rule:nonzero;stroke:rgb(165,223,220);stroke-width:1px;"/>
      <!-- dark body silhouette -->
      <path d="M357.5,43L387,42.5L396,48.5C400,53.367 401.333,60.533 400,70L446,98.5L475,187L531.5,186L560.5,187L589,102.5L593.5,96L637,68.5C634.933,56.1 637.433,48.267 644.5,45L649.5,43L678.5,43L689,50.5L691,55.5L691,85.5L683.5,95L678.5,97L646.5,97L614,117.5L591,189L612.5,189L624.5,177L629.5,171L632,169.5L633.5,168L638.5,162C652.7,147.2 669.033,134.533 687.5,124C696.7,118.533 709.033,116.2 724.5,117C740.7,120.133 752.867,127.3 761,138.5C795.8,188.033 814.467,253.7 817,335.5C817.933,414.767 797.433,472.6 755.5,509L727.5,530L690,550.5L664.5,596L637.5,611L620.5,601L609,608.5L609,623.5L607.5,624L585.5,637L562.5,624L544.5,636L535,637L524.5,652L513.5,653L500.5,637L491.5,636L473.5,624L450.5,637L428,623.5L428,608.5L426.5,608C424.7,603.467 420.367,601.467 413.5,602L397.5,611L370,593.5L343.5,547C311.833,535 286,517.167 266,493.5C232.933,456.567 217.6,401.9 220,329.5L223,297.5L223,295.5C226.467,256.967 234.133,222.633 246,192.5C254.667,166.167 268.167,144.667 286.5,128C294.567,119.4 307.567,115.733 325.5,117C341.767,119.733 355.1,125.4 365.5,134L427.5,190L445,189L423,119.5L418.5,114L388.5,96L358.5,97L348,90.5L345,83.5L345,56.5L351.5,46L357.5,43ZM366,275L306,310L304,312L304,384L365,420L428,385L429,384L429,313L366,275ZM669,275L611,309L608,312L607,373L608,384L669,420L733,384L732,310L669,275ZM462,442L455,445L453,450L455,459C467.667,475 486.667,484.667 512,488C540,488 561,480.667 575,466L583,457L582,447L575,442L569,444L565,449C556.333,459 544.333,465.333 529,468C514.333,469.333 502.667,468 494,464C482.667,459.333 473.667,452.333 467,443L462,442ZM398,562L386,569L383,572L383,589L397,597L412,590L414,588L414,572L398,562ZM434,562L419,570L418,588L434,598L448,589L449,589L449,572L434,562ZM603,562L591,569L588,572L588,589L602,597L617,590L619,588L619,572L603,562ZM638,562L626,569L623,572L623,589L637,597L652,590L654,588L654,572L638,562ZM459,575L459,582L470,600L472,601L566,601L578,582L577,575L546,578C514,579.333 485,578.333 459,575ZM451,593L438,601C435.333,601 434.667,604.333 436,611L435,614L436,620L451,628L465,621L467,611L466,601L451,593ZM585,593L572,601L570,603L570,619L585,628L600,620L601,620L601,601L585,593ZM476,607L492,626L495,627L543,627L553,617L554,615L558,612L561,608L476,607ZM509,632L519,648L528,634L528,632L509,632Z" style="fill:rgb(63,64,64);fill-rule:nonzero;stroke:rgb(63,64,64);stroke-width:1px;"/>
      <!-- off-white honeycomb cells -->
      <path d="M638.5,562L653,571.5L654,577.5L653,586.5L652.5,589L637.5,597L624,589L623,572.5L638.5,562Z" style="fill:rgb(242,243,237);fill-rule:nonzero;stroke:rgb(242,243,237);stroke-width:1px;"/>
      <path d="M396.5,563L413,571.5L413,588.5L411.5,589L397.5,597L383,587.5L384,584.5L383,572.5L396.5,563Z" style="fill:rgb(242,243,237);fill-rule:nonzero;stroke:rgb(242,243,237);stroke-width:1px;"/>
      <path d="M432.5,563L449,572.5L448,585.5L449,587.5L433.5,597L419,589L419,571.5L420.5,570L432.5,563Z" style="fill:rgb(242,243,237);fill-rule:nonzero;stroke:rgb(242,243,237);stroke-width:1px;"/>
      <path d="M601.5,563L618,571.5L618,588.5L616.5,589L602.5,597L588,587.5L588,571.5L589.5,571L601.5,563Z" style="fill:rgb(242,243,237);fill-rule:nonzero;stroke:rgb(242,243,237);stroke-width:1px;"/>
      <path d="M460,576C483.267,578.667 508.433,579.667 535.5,579L577,576L578,580.5L566,601L471.5,601L471,599.5L459,579.5L460,576Z" style="fill:rgb(242,243,237);fill-rule:nonzero;stroke:rgb(242,243,237);stroke-width:1px;"/>
      <path d="M449.5,594L466,602.5L466,618.5L464.5,620L450.5,628L436,618.5L436,602.5L437.5,601L449.5,594Z" style="fill:rgb(242,243,237);fill-rule:nonzero;stroke:rgb(242,243,237);stroke-width:1px;"/>
      <path d="M583.5,594L587.5,594L601,602.5L601,618.5L599.5,620L585.5,628L571,618.5L571,602.5L572.5,601L583.5,594Z" style="fill:rgb(242,243,237);fill-rule:nonzero;stroke:rgb(242,243,237);stroke-width:1px;"/>
      <path d="M476.5,607L561,607.5L541.5,627L494.5,627L476.5,607Z" style="fill:rgb(242,243,237);fill-rule:nonzero;stroke:rgb(242,243,237);stroke-width:1px;"/>
      <path d="M509.5,632L528,632.5L518.5,647L517,645.5L509.5,632Z" style="fill:rgb(242,243,237);fill-rule:nonzero;stroke:rgb(242,243,237);stroke-width:1px;"/>
    </g>
  </g>
</svg>
