<svg viewBox="0 0 1024 695" version="1.1" xmlns="http://www.w3.org/2000/svg" desc="Created with imagetracer.js version 1.2.6" ><path fill="rgb(79,205,204)" stroke="rgb(79,205,204)" stroke-width="1" opacity="1" d="M 108.5 167 L 113.5 168 L 230 250.5 L 223 296 L 207.5 289 L 52 194.5 L 108.5 167 Z M 109 169 L 107 170 L 104 171 L 95 175 L 91 177 L 90 179 L 89 178 L 71 187 L 68 189 L 61 191 L 57 196 L 83 211 L 84 213 L 116 231 L 117 233 L 123 235 L 124 237 L 169 263 L 170 265 L 179 268 L 218 293 L 222 293 L 221 289 L 222 286 L 225 266 L 225 264 L 227 259 L 226 256 L 227 254 L 227 252 L 204 234 L 202 232 L 191 225 L 189 224 L 168 209 L 166 208 L 157 201 L 155 199 L 140 189 L 136 187 L 123 177 L 121 175 L 117 173 L 115 172 L 109 169 Z " /><path fill="rgb(79,205,204)" stroke="rgb(79,205,204)" stroke-width="1" opacity="1" d="M 925.5 167 L 984 194.5 L 814.5 297 L 806 248.5 L 807 248.5 L 808.5 250 L 925.5 167 Z M 924 169 L 923 172 L 918 174 L 916 177 L 910 180 L 908 182 L 902 186 L 898 188 L 896 191 L 858 217 L 856 219 L 844 227 L 842 229 L 825 241 L 822 243 L 813 249 L 811 251 L 809 255 L 811 261 L 811 263 Q 809 270 813 269 L 814 277 L 813 281 L 817 294 L 838 282 L 839 279 L 859 269 L 860 266 L 879 257 L 880 255 L 898 245 L 899 243 L 903 242 L 905 242 L 916 235 L 917 232 L 931 225 L 933 225 L 936 222 L 976 199 L 979 195 L 978 193 L 930 169 L 924 169 Z " /><path fill="rgb(79,205,204)" stroke="rgb(79,205,204)" stroke-width="1" opacity="1" d="M 49.5 201 L 129 249.5 L 150 332 L 135.5 326 L 76 290.5 L 49.5 201 Z M 54 207 L 53 210 L 78 291 L 131 320 L 132 322 L 135 323 L 137 323 L 137 325 L 146 329 L 147 326 Q 143 323 145 316 L 144 316 L 140 298 L 140 296 L 135 285 L 129 255 L 124 247 L 119 245 L 116 244 L 86 225 L 84 223 L 54 207 Z " /><path fill="rgb(79,205,204)" stroke="rgb(79,205,204)" stroke-width="1" opacity="1" d="M 985.5 202 L 987 204.5 L 958.5 293 L 892.5 331 L 887 332 L 908.5 248 L 985.5 202 Z M 983 206 L 978 209 L 973 213 L 972 212 L 950 226 L 948 228 L 938 233 L 936 235 L 930 237 L 928 240 L 918 245 L 916 247 L 911 249 L 907 254 L 902 279 L 902 281 L 892 315 L 893 317 L 890 329 L 910 318 L 912 316 L 919 314 L 920 312 L 944 300 L 949 297 L 954 294 L 956 291 L 959 289 L 962 279 L 962 277 L 969 258 L 969 256 L 975 237 Q 974 232 977 233 L 978 228 L 978 226 L 981 218 L 981 216 L 984 208 L 983 206 Z " /><path fill="rgb(79,205,204)" stroke="rgb(79,205,204)" stroke-width="1" opacity="1" d="M 138.5 255 L 222 304 L 220 337 L 159.5 332 L 156 329.5 L 138.5 255 Z M 143 260 L 141 262 L 143 271 L 143 273 L 147 287 L 149 291 L 148 293 L 157 322 L 156 325 L 157 328 L 160 330 L 176 332 L 179 331 L 185 332 L 187 332 L 205 335 L 209 334 L 217 335 L 219 328 L 218 324 L 220 319 L 219 316 L 220 312 L 219 308 L 217 303 L 206 297 L 204 295 L 186 285 L 184 285 L 183 283 L 179 281 L 177 279 L 146 261 L 143 260 Z " /><path fill="rgb(79,205,204)" stroke="rgb(79,205,204)" stroke-width="1" opacity="1" d="M 896.5 256 L 898 258.5 L 878.5 332 L 816.5 337 L 816 334.5 L 815 304 L 896.5 256 Z M 891 261 L 850 287 Q 845 286 846 289 L 838 293 L 836 295 L 823 301 L 817 311 L 818 315 L 817 324 L 819 334 L 822 335 L 843 333 L 845 333 L 857 331 L 861 332 L 878 329 L 879 327 Q 878 322 881 323 L 882 311 L 891 281 Q 889 274 893 275 L 894 265 L 895 262 L 891 261 Z " /><path fill="rgb(79,205,204)" stroke="rgb(79,205,204)" stroke-width="1" opacity="1" d="M 365.5 275 L 429 312.5 L 429 383.5 L 427.5 385 L 364.5 420 L 304 383.5 L 304.5 372 L 306 384 L 367.5 418 L 416.5 390 L 427 381.5 L 428 363.5 L 427 313.5 L 423.5 309 L 412 304 L 410.5 302 L 366.5 277 L 362.5 279 L 306 311 L 305 315.5 L 305 317.5 L 306 331.5 L 305 334.5 L 305 336.5 L 306 342.5 L 306 344.5 L 305 353.5 L 306 355.5 L 305 359.5 L 306 363.5 L 304.5 370 L 304 311.5 L 365.5 275 Z " /><path fill="rgb(79,205,204)" stroke="rgb(79,205,204)" stroke-width="1" opacity="1" d="M 668.5 275 L 732 310 L 733 383.5 L 668.5 420 L 608 383.5 L 607 372.5 L 608 311.5 L 610.5 309 L 668.5 275 Z M 670 277 L 630 300 L 628 302 L 615 308 L 609 316 L 610 319 L 609 323 L 609 325 L 610 329 L 609 334 L 610 336 L 610 338 L 609 340 L 609 342 L 610 355 L 609 359 L 610 361 L 609 368 L 609 370 L 610 373 L 609 378 L 610 383 L 669 418 L 673 418 L 729 385 L 731 381 L 730 312 L 718 304 L 716 302 L 670 277 Z " /><path fill="rgb(79,205,204)" stroke="rgb(79,205,204)" stroke-width="1" opacity="1" d="M 148.5 339 L 151.5 339 L 170 356 L 171.5 358 L 185.5 372 L 200.5 372 L 203.5 371 L 207.5 372 L 221 371 L 225 400 L 176.5 418 L 115 395 L 104 353 L 148.5 339 Z M 148 341 L 137 345 L 135 345 L 107 355 L 110 366 L 109 368 L 117 394 L 143 403 L 145 403 L 161 410 Q 165 409 164 412 L 175 415 L 207 406 L 222 398 L 221 394 L 222 392 L 220 386 L 221 384 L 219 377 L 219 375 L 219 373 L 206 373 L 204 373 L 195 374 L 192 373 L 187 374 L 183 372 L 178 367 L 176 365 L 171 360 L 164 353 L 162 352 L 156 347 L 154 344 L 148 341 Z " /><path fill="rgb(79,205,204)" stroke="rgb(79,205,204)" stroke-width="1" opacity="1" d="M 163 339 L 220 344 L 221 364.5 L 219.5 364 L 214.5 365 L 210.5 364 L 207.5 365 L 186.5 364 L 163 340.5 L 163 339 Z M 168 341 L 170 345 L 173 347 L 175 351 Q 181 362 196 364 L 211 363 L 213 363 L 218 362 L 219 360 L 218 353 L 219 350 L 218 346 L 203 343 L 200 344 L 168 341 Z " /><path fill="rgb(79,205,204)" stroke="rgb(79,205,204)" stroke-width="1" opacity="1" d="M 869.5 339 L 874 340.5 L 870 343.5 L 866.5 348 L 865 349.5 L 858 355.5 L 856.5 357 L 848.5 365 L 821.5 365 L 816 364 L 816.5 341 L 817 344 L 819.5 343 L 821.5 343 L 869.5 339 Z M 866 341 L 864 343 L 860 342 L 855 343 L 852 342 L 840 344 L 835 343 L 828 344 L 826 344 L 818 348 L 819 350 L 818 353 Q 817 360 821 363 L 831 362 L 847 364 L 863 349 L 865 347 L 867 344 L 866 341 Z " /><path fill="rgb(79,205,204)" stroke="rgb(79,205,204)" stroke-width="1" opacity="1" d="M 884.5 339 L 932 353.5 L 920.5 395 L 858.5 418 L 812.5 401 L 811 401.5 L 815.5 368 L 816.5 372 L 823.5 371 L 825.5 371 L 850.5 372 L 855 368.5 L 860.5 362 L 882 343 L 884.5 339 Z M 884 341 L 884 343 L 876 350 L 871 356 L 869 358 L 868 357 L 867 359 L 861 364 L 856 370 L 855 371 L 852 372 L 848 374 L 844 373 L 835 374 L 833 374 L 830 372 L 819 373 L 817 377 L 814 400 L 857 415 L 867 414 L 919 394 L 927 370 Q 925 362 929 363 L 930 358 L 929 354 L 928 354 L 914 348 L 884 341 Z " /><path fill="rgb(79,205,204)" stroke="rgb(79,205,204)" stroke-width="1" opacity="1" d="M 461.5 442 L 466.5 443 Q 477 456.5 493.5 464 Q 507.1 469.9 528 468.5 L 523.5 469 L 513.5 470 Q 495.7 468.2 484 461 L 482.5 459 L 470 448.5 L 468.5 447 L 460.5 444 L 455 448.5 L 454 453.5 L 466.5 468 L 478.5 477 L 496.5 484 L 498.5 483 L 504.5 486 L 519.5 487 L 521.5 486 L 523.5 486 L 535.5 484 L 537.5 484 L 560 476 L 561.5 474 L 572 467 L 573.5 464 L 578 460.5 L 582 450.5 L 576.5 444 L 572.5 445 L 570.5 445 L 568 446.5 L 566.5 448 L 564 452 L 560.5 454 Q 550.1 466.1 529.5 468 L 529.5 467 Q 553.4 463.9 565 448.5 L 568.5 444 L 574.5 442 L 582 446.5 L 583 456.5 L 574.5 466 Q 554.3 488.3 511.5 488 Q 473.8 482.8 455 458.5 L 453 449.5 L 455 445 L 461.5 442 Z " /><path fill="rgb(79,205,204)" stroke="rgb(79,205,204)" stroke-width="1" opacity="1" d="M 418.5 575 L 419 587.5 L 418 587.5 L 418.5 575 Z " /><path fill="rgb(18,233,235)" stroke="rgb(18,233,235)" stroke-width="1" opacity="1" d="M 108.5 169 L 115 171.5 L 116.5 173 L 121 175 L 122.5 177 L 135.5 187 L 139.5 189 L 155 199 L 156.5 201 L 166 207.5 L 167.5 209 L 189 223.5 L 190.5 225 L 202 232 L 203.5 234 L 227 251.5 L 227 253.5 L 226 255.5 L 227 258.5 L 225 263.5 L 225 265.5 L 222 285.5 L 221 288.5 L 222 292.5 L 217.5 293 L 178.5 268 L 170 265 L 168.5 263 L 124 236.5 L 122.5 235 L 117 233 L 115.5 231 L 84 213 L 82.5 211 L 57 195.5 L 60.5 191 L 68 189 L 70.5 187 L 88.5 178 L 90 178.5 L 90.5 177 L 94.5 175 L 103.5 171 L 106.5 170 L 108.5 169 Z " /><path fill="rgb(18,233,235)" stroke="rgb(18,233,235)" stroke-width="1" opacity="1" d="M 924 169 L 929.5 169 L 978 192.5 L 979 194.5 L 976 199 L 936 221.5 L 933 224.5 L 930.5 225 L 917 232 L 915.5 235 L 904.5 242 L 902.5 242 L 899 243 L 897.5 245 L 880 255 L 878.5 257 L 860 266 L 858.5 269 L 839 279 L 837.5 282 L 816.5 294 L 813 280.5 L 814 276.5 L 813 269 Q 809.5 270.1 811 262.5 L 811 260.5 L 809 254.5 L 811 250.5 L 812.5 249 L 822 242.5 L 824.5 241 L 842 229 L 843.5 227 L 856 219 L 857.5 217 L 896 191 L 897.5 188 L 901.5 186 L 908 181.5 L 909.5 180 L 916 177 L 917.5 174 L 922.5 172 L 924 169 Z " /><path fill="rgb(18,233,235)" stroke="rgb(18,233,235)" stroke-width="1" opacity="1" d="M 982.5 206 L 984 207.5 L 981 215.5 L 981 217.5 L 978 225.5 L 978 227.5 L 977 233 Q 973.7 231.7 975 236.5 L 969 255.5 L 969 257.5 L 962 276.5 L 962 278.5 L 959 289 L 956 290.5 L 953.5 294 L 948.5 297 L 943.5 300 L 920 312 L 918.5 314 L 912 316 L 909.5 318 L 890 329 L 893 316.5 L 892 314.5 L 902 280.5 L 902 278.5 L 907 253.5 L 910.5 249 L 916 247 L 917.5 245 L 928 240 L 929.5 237 L 936 235 L 937.5 233 L 948 228 L 949.5 226 L 971.5 212 L 973 212.5 L 977.5 209 L 982.5 206 Z " /><path fill="rgb(18,233,235)" stroke="rgb(18,233,235)" stroke-width="1" opacity="1" d="M 53.5 207 L 84 223 L 85.5 225 L 115.5 244 L 118.5 245 L 124 247 L 125.5 250 L 127 249.5 L 127 251.5 L 134 272.5 L 135 284.5 L 140 295.5 L 140 297.5 L 143.5 316 L 145 315.5 Q 143 323.5 147 325.5 L 145.5 329 L 137 325 L 136.5 323 L 134.5 323 L 132 321.5 L 130.5 320 L 78 291 L 53 209.5 L 53.5 207 Z " /><path fill="rgb(18,233,235)" stroke="rgb(18,233,235)" stroke-width="1" opacity="1" d="M 142.5 260 L 145.5 261 L 177 279 L 178.5 281 L 183 283 L 183.5 285 L 185.5 285 L 204 295 L 205.5 297 L 217 303 L 219 307.5 L 220 311.5 L 219 315.5 L 220 318.5 L 218 323.5 L 219 327.5 L 216.5 335 L 208.5 334 L 204.5 335 L 186.5 332 L 184.5 332 L 178.5 331 L 175.5 332 L 159.5 330 L 157 327.5 L 156 324.5 L 157 321.5 L 148 292.5 L 149 290.5 L 147 286.5 L 143 272.5 L 143 270.5 L 141 261.5 L 142.5 260 Z " /><path fill="rgb(18,233,235)" stroke="rgb(18,233,235)" stroke-width="1" opacity="1" d="M 890.5 261 L 895 261.5 L 894 264.5 L 893 275 Q 889 273.6 891 280.5 L 882 310.5 L 881 323 Q 877.7 321.7 879 326.5 L 878 329 L 860.5 332 L 856.5 331 L 844.5 333 L 842.5 333 L 821.5 335 L 819 334 L 817 323.5 L 818 314.5 L 817 310.5 L 822.5 301 L 836 295 L 837.5 293 L 846 289 Q 844.7 285.7 849.5 287 L 890.5 261 Z " /><path fill="rgb(18,233,235)" stroke="rgb(18,233,235)" stroke-width="1" opacity="1" d="M 364.5 277 L 367.5 278 L 412 302 L 413.5 304 L 425 310.5 L 427 313.5 L 428 363.5 L 427 381.5 L 422.5 386 L 375.5 414 L 364.5 418 L 306 384 L 304 370.5 L 306 360.5 L 305 356.5 L 306 354.5 L 305 346.5 L 306 344.5 L 305 341.5 L 306 335.5 L 305 332.5 L 306 329.5 L 305 317.5 L 305 315.5 L 306 311 L 364.5 277 Z " /><path fill="rgb(18,233,235)" stroke="rgb(18,233,235)" stroke-width="1" opacity="1" d="M 669.5 277 L 716 302 L 717.5 304 L 730 311.5 L 731 380.5 L 729 385 L 672.5 418 L 668.5 418 L 610 382.5 L 609 377.5 L 610 372.5 L 609 369.5 L 609 367.5 L 610 360.5 L 609 358.5 L 610 354.5 L 609 341.5 L 609 339.5 L 610 337.5 L 610 335.5 L 609 333.5 L 610 328.5 L 609 324.5 L 609 322.5 L 610 318.5 L 609 315.5 L 614.5 308 L 628 302 L 629.5 300 L 669.5 277 Z " /><path fill="rgb(18,233,235)" stroke="rgb(18,233,235)" stroke-width="1" opacity="1" d="M 147.5 341 L 154 343.5 L 156 346.5 L 162 351.5 L 163.5 353 L 171 359.5 L 175.5 365 L 178 366.5 L 182.5 372 L 186.5 374 L 191.5 373 L 194.5 374 L 203.5 373 L 205.5 373 L 218.5 373 L 219 374.5 L 219 376.5 L 221 383.5 L 220 385.5 L 222 391.5 L 221 393.5 L 222 397.5 L 206.5 406 L 174.5 415 L 164 412 Q 165.3 408.7 160.5 410 L 144.5 403 L 142.5 403 L 117 394 L 109 367.5 L 110 365.5 L 107 355 L 134.5 345 L 136.5 345 L 147.5 341 Z " /><path fill="rgb(18,233,235)" stroke="rgb(18,233,235)" stroke-width="1" opacity="1" d="M 168 341 L 199.5 344 L 202.5 343 L 218 346 L 219 349.5 L 218 352.5 L 219 359.5 L 218 362 L 212.5 363 L 210.5 363 L 195.5 364 Q 180.5 362 175 350.5 L 172.5 347 L 169.5 345 L 168 341 Z " /><path fill="rgb(18,233,235)" stroke="rgb(18,233,235)" stroke-width="1" opacity="1" d="M 865.5 341 L 867 343.5 L 864.5 347 L 863 348.5 L 846.5 364 L 830.5 362 L 820.5 363 Q 816.5 360.5 818 352.5 L 819 349.5 L 818 347.5 L 825.5 344 L 827.5 344 L 834.5 343 L 839.5 344 L 851.5 342 L 854.5 343 L 859.5 342 L 863.5 343 L 865.5 341 Z " /><path fill="rgb(18,233,235)" stroke="rgb(18,233,235)" stroke-width="1" opacity="1" d="M 884 341 L 913.5 348 L 927.5 354 L 929 353.5 L 930 357.5 L 928.5 363 Q 925.5 362.5 927 369.5 L 918.5 394 L 866.5 414 L 856.5 415 L 814 400 L 817 376.5 L 818.5 373 L 829.5 372 L 832.5 374 L 834.5 374 L 843.5 373 L 847.5 374 L 851.5 372 L 854.5 371 L 856 369.5 L 860.5 364 L 867 358.5 L 867.5 357 L 869 357.5 L 870.5 356 L 875.5 350 L 884 342.5 L 884 341 Z " /><path fill="rgb(18,233,235)" stroke="rgb(18,233,235)" stroke-width="1" opacity="1" d="M 460.5 444 L 470 447 L 477.5 456 L 484 459 L 485.5 461 Q 497.3 469.2 516.5 470 L 523.5 469 L 528.5 468 L 539.5 467 L 562 454 L 564 450.5 L 568 448 L 569.5 445 L 571.5 444 L 573.5 444 L 581 448.5 L 582 454.5 L 574.5 464 L 572 465.5 L 570.5 467 L 560 474 Q 561.3 477.3 556.5 476 L 536.5 485 L 534.5 485 L 522.5 487 L 520.5 486 L 518.5 486 Q 504.4 488.1 497.5 483 L 494.5 482 L 478.5 477 L 462 463.5 L 454 451.5 L 458.5 445 L 460.5 444 Z " /><path fill="rgb(63,64,64)" stroke="rgb(63,64,64)" stroke-width="1" opacity="1" d="M 357.5 43 L 386.5 43 L 396 48.5 Q 402 55.8 400 70 L 446 98.5 L 475 187 L 531.5 186 L 560.5 187 L 589 102.5 L 593.5 96 L 637 68.5 Q 633.9 49.9 644.5 45 L 649.5 43 L 678.5 43 L 689 50.5 L 691 55.5 L 691 85.5 L 683.5 95 L 678.5 97 L 648.5 97 L 646.5 97 L 614 117.5 L 591 189 L 612.5 189 L 623 178.5 L 624.5 177 L 629.5 171 L 632 169.5 L 633.5 168 L 638.5 162 Q 659.8 139.8 687.5 124 Q 701.3 115.8 724.5 117 Q 748.8 121.7 761 138.5 Q 813.2 212.8 817 335.5 Q 818.4 454.4 755.5 509 L 727.5 530 L 690 550.5 L 664.5 596 L 637.5 611 L 620.5 601 L 609 608.5 L 609 623.5 L 607.5 624 L 585.5 637 L 562.5 624 L 544.5 636 L 535 637 L 524.5 652 L 513.5 653 L 500.5 637 L 491.5 636 L 473.5 624 L 450.5 637 L 428 623.5 L 428 608.5 L 426.5 608 Q 423.8 601.2 413.5 602 L 397.5 611 L 370 593.5 L 343.5 547 Q 296 529 266 493.5 Q 216.4 438.1 220 329.5 L 223 297.5 L 223 295.5 Q 228.2 237.7 246 192.5 Q 259 153 286.5 128 Q 298.6 115.1 325.5 117 Q 349.9 121.1 365.5 134 L 427.5 190 L 445 189 L 423 119.5 L 418.5 114 L 388.5 96 L 358.5 97 L 348 90.5 L 345 83.5 L 345 56.5 L 351.5 46 L 357.5 43 Z M 366 275 L 306 310 L 304 312 L 304 384 L 365 420 L 428 385 L 429 384 L 429 313 L 366 275 Z M 669 275 L 611 309 L 608 312 L 607 373 L 608 384 L 669 420 L 733 384 L 732 310 L 669 275 Z M 462 442 L 455 445 L 453 450 L 455 459 Q 474 483 512 488 Q 554 488 575 466 L 583 457 L 582 447 L 575 442 L 569 444 L 565 449 Q 552 464 529 468 Q 507 470 494 464 Q 477 457 467 443 L 462 442 Z M 398 562 L 386 569 L 383 572 L 383 589 L 397 597 L 412 590 L 414 588 L 414 572 L 398 562 Z M 434 562 L 419 570 L 418 588 L 434 598 L 448 589 L 449 589 L 449 572 L 434 562 Z M 603 562 L 591 569 L 588 572 L 588 589 L 602 597 L 617 590 L 619 588 L 619 572 L 603 562 Z M 638 562 L 626 569 L 623 572 L 623 589 L 637 597 L 652 590 L 654 588 L 654 572 L 638 562 Z M 459 575 L 459 582 L 470 600 L 472 601 L 566 601 L 578 582 L 577 575 L 546 578 Q 498 580 459 575 Z M 451 593 L 438 601 Q 434 601 436 611 L 435 614 L 436 620 L 451 628 L 465 621 L 467 611 L 466 601 L 451 593 Z M 585 593 L 572 601 L 570 603 L 570 619 L 585 628 L 600 620 L 601 620 L 601 601 L 585 593 Z M 476 607 L 492 626 L 495 627 L 543 627 L 551 619 L 553 617 L 554 615 L 558 612 L 561 608 L 476 607 Z M 509 632 L 519 648 L 528 634 L 528 632 L 509 632 Z " /><path fill="rgb(165,223,220)" stroke="rgb(165,223,220)" stroke-width="1" opacity="1" d="M 1023.5 0 L 1024 7.5 L 1023 7.5 L 1023.5 0 Z " /><path fill="rgb(165,223,220)" stroke="rgb(165,223,220)" stroke-width="1" opacity="1" d="M 1023.5 10 L 1024 18.5 L 1023 18.5 L 1023.5 10 Z " /><path fill="rgb(165,223,220)" stroke="rgb(165,223,220)" stroke-width="1" opacity="1" d="M 359.5 42 L 387 42.5 L 359.5 43 L 359.5 42 Z " /><path fill="rgb(165,223,220)" stroke="rgb(165,223,220)" stroke-width="1" opacity="1" d="M 650.5 42 L 679 42.5 L 650.5 43 L 650.5 42 Z " /><path fill="rgb(165,223,220)" stroke="rgb(165,223,220)" stroke-width="1" opacity="1" d="M 636.5 56 L 637 63.5 L 636 63.5 L 636.5 56 Z " /><path fill="rgb(165,223,220)" stroke="rgb(165,223,220)" stroke-width="1" opacity="1" d="M 691.5 57 L 692 82.5 L 691 82.5 L 691.5 57 Z " /><path fill="rgb(165,223,220)" stroke="rgb(165,223,220)" stroke-width="1" opacity="1" d="M 636.5 68 L 634.5 71 L 632.5 72 L 633.5 70 L 636.5 68 Z " /><path fill="rgb(165,223,220)" stroke="rgb(165,223,220)" stroke-width="1" opacity="1" d="M 415.5 78 L 419 80.5 L 417.5 80 L 415.5 78 Z " /><path fill="rgb(165,223,220)" stroke="rgb(165,223,220)" stroke-width="1" opacity="1" d="M 359.5 97 L 387 97.5 L 359.5 98 L 359.5 97 Z " /><path fill="rgb(165,223,220)" stroke="rgb(165,223,220)" stroke-width="1" opacity="1" d="M 650.5 97 L 678 97.5 L 650.5 98 L 650.5 97 Z " /><path fill="rgb(165,223,220)" stroke="rgb(165,223,220)" stroke-width="1" opacity="1" d="M 1023.5 106 L 1024 114.5 L 1023 114.5 L 1023.5 106 Z " /><path fill="rgb(165,223,220)" stroke="rgb(165,223,220)" stroke-width="1" opacity="1" d="M 316.5 116 L 322 116.5 L 316.5 117 L 316.5 116 Z " /><path fill="rgb(165,223,220)" stroke="rgb(165,223,220)" stroke-width="1" opacity="1" d="M 349.5 124 L 354 126.5 L 352.5 126 L 349.5 124 Z " /><path fill="rgb(165,223,220)" stroke="rgb(165,223,220)" stroke-width="1" opacity="1" d="M 262.5 157 L 262 158.5 L 260.5 161 L 261 159.5 L 262.5 157 Z " /><path fill="rgb(165,223,220)" stroke="rgb(165,223,220)" stroke-width="1" opacity="1" d="M 107.5 166 L 121.5 172 L 211.5 237 L 226 245 L 227.5 248 L 230 250 L 113.5 168 L 108.5 167 L 52 194.5 L 222 296 L 221.5 298 L 160.5 261 L 156.5 259 L 124 241 L 122.5 238 L 51 194.5 L 52.5 193 L 107.5 166 Z " /><path fill="rgb(165,223,220)" stroke="rgb(165,223,220)" stroke-width="1" opacity="1" d="M 924.5 166 L 929.5 166 L 955.5 178 L 986 194.5 L 979 199 L 976.5 201 L 825 292 L 824.5 294 L 821.5 295 L 815 297 L 814.5 301 L 814 297.5 L 984 194.5 L 925.5 167 L 807.5 250 L 810.5 246 L 883 195.5 L 884.5 194 L 924.5 166 Z " /><path fill="rgb(165,223,220)" stroke="rgb(165,223,220)" stroke-width="1" opacity="1" d="M 491.5 186 L 501 186.5 L 491.5 187 L 491.5 186 Z " /><path fill="rgb(165,223,220)" stroke="rgb(165,223,220)" stroke-width="1" opacity="1" d="M 536.5 186 L 547 186.5 L 536.5 187 L 536.5 186 Z " /><path fill="rgb(165,223,220)" stroke="rgb(165,223,220)" stroke-width="1" opacity="1" d="M 591.5 186 L 592 188 L 602 188.5 L 592.5 189 L 591.5 186 Z " /><path fill="rgb(165,223,220)" stroke="rgb(165,223,220)" stroke-width="1" opacity="1" d="M 436.5 188 L 445 188.5 L 436.5 189 L 436.5 188 Z " /><path fill="rgb(165,223,220)" stroke="rgb(165,223,220)" stroke-width="1" opacity="1" d="M 48 200 L 76 215 L 78.5 217 L 131 249.5 L 132 257.5 L 131 257.5 L 126.5 247 L 49.5 201 L 49 203.5 L 75 288.5 L 79.5 294 L 149.5 332 L 151 331.5 L 146.5 333 L 75 291.5 L 50 213.5 L 48 200 Z " /><path fill="rgb(165,223,220)" stroke="rgb(165,223,220)" stroke-width="1" opacity="1" d="M 987.5 200 L 988 205.5 L 962 290.5 L 957.5 295 L 892.5 332 L 886 333 L 891.5 308 L 892 311.5 L 887 332 L 892.5 331 L 960 291.5 L 987 202 L 907 249.5 L 892.5 307 L 892 301.5 L 905 252.5 L 909.5 246 L 987.5 200 Z " /><path fill="rgb(165,223,220)" stroke="rgb(165,223,220)" stroke-width="1" opacity="1" d="M 1023.5 220 L 1024 225.5 L 1023 225.5 L 1023.5 220 Z " /><path fill="rgb(165,223,220)" stroke="rgb(165,223,220)" stroke-width="1" opacity="1" d="M 1023.5 240 L 1024 246.5 L 1023 246.5 L 1023.5 240 Z " /><path fill="rgb(165,223,220)" stroke="rgb(165,223,220)" stroke-width="1" opacity="1" d="M 137 254 L 149.5 259 L 220.5 303 L 222 302.5 L 219.5 304 L 138.5 255 L 138 258.5 L 157.5 331 L 220 337 L 219.5 340 L 219 338 L 208.5 337 L 206.5 337 L 164.5 334 L 155 330.5 L 142 276.5 L 139 271.5 L 140 269.5 L 137 254 Z " /><path fill="rgb(165,223,220)" stroke="rgb(165,223,220)" stroke-width="1" opacity="1" d="M 897.5 254 L 900 255.5 L 882 329.5 L 878.5 333 L 859.5 335 L 857.5 335 L 828.5 338 L 824.5 337 L 820.5 338 L 817 337 L 816.5 341 L 816 337.5 L 880 330.5 L 898 256 L 816.5 304 L 819.5 300 L 897.5 254 Z " /><path fill="rgb(165,223,220)" stroke="rgb(165,223,220)" stroke-width="1" opacity="1" d="M 132.5 259 L 145 302.5 L 150 329.5 L 149 329.5 L 132.5 259 Z " /><path fill="rgb(165,223,220)" stroke="rgb(165,223,220)" stroke-width="1" opacity="1" d="M 1023.5 298 L 1024 318.5 L 1023 318.5 L 1023.5 298 Z " /><path fill="rgb(165,223,220)" stroke="rgb(165,223,220)" stroke-width="1" opacity="1" d="M 1023.5 322 L 1024 330.5 L 1023 330.5 L 1023.5 322 Z " /><path fill="rgb(165,223,220)" stroke="rgb(165,223,220)" stroke-width="1" opacity="1" d="M 1023.5 334 L 1024 342.5 L 1023 342.5 L 1023.5 334 Z " /><path fill="rgb(165,223,220)" stroke="rgb(165,223,220)" stroke-width="1" opacity="1" d="M 887.5 337 L 933 352 L 933 359.5 L 924 391.5 L 920.5 396 L 860.5 418 L 860.5 417 L 922 393.5 L 932 353.5 L 884.5 339 L 882 343 L 855 367.5 L 853.5 370 L 850.5 372 L 832.5 372 L 825.5 371 L 823.5 371 L 816.5 372 L 817.5 370 L 835.5 371 L 841.5 370 L 844.5 371 L 853 369 L 859.5 361 L 861 359.5 L 870 352.5 L 874.5 347 L 878 344.5 L 879.5 343 L 887.5 337 Z " /><path fill="rgb(165,223,220)" stroke="rgb(165,223,220)" stroke-width="1" opacity="1" d="M 146.5 338 L 153.5 339 L 180 363 L 185.5 370 L 195.5 371 L 220 370 L 219.5 366 L 186.5 366 L 184 365 L 181.5 361 L 179 359.5 L 171.5 350 L 161 340.5 L 160 338.5 L 170.5 338 L 199.5 341 L 201.5 341 L 218.5 343 L 220 342.5 L 216.5 344 L 163 339 L 186.5 364 L 207.5 365 L 210.5 364 L 215.5 365 L 219.5 364 L 221 371 L 204.5 372 L 201.5 371 L 185.5 372 L 170 358 L 168.5 356 L 151.5 339 L 148.5 339 L 104 353 L 113 388.5 L 112 388.5 L 103 352 L 146.5 338 Z " /><path fill="rgb(165,223,220)" stroke="rgb(165,223,220)" stroke-width="1" opacity="1" d="M 865.5 338 L 867.5 339 L 876 338 L 872 345 L 860 355.5 L 857.5 359 L 856 360.5 L 848.5 366 L 818.5 366 L 816 365.5 L 820.5 364 L 848.5 365 L 858 357 L 861.5 352 L 865 349.5 L 866.5 348 L 871.5 342 L 874 340.5 L 869.5 339 L 820.5 344 L 818.5 344 L 817 342 L 853.5 339 L 855.5 340 L 865.5 338 Z " /><path fill="rgb(165,223,220)" stroke="rgb(165,223,220)" stroke-width="1" opacity="1" d="M 1023.5 346 L 1024 351.5 L 1023 351.5 L 1023.5 346 Z " /><path fill="rgb(165,223,220)" stroke="rgb(165,223,220)" stroke-width="1" opacity="1" d="M 1023.5 360 L 1024 366.5 L 1023 366.5 L 1023.5 360 Z " /><path fill="rgb(165,223,220)" stroke="rgb(165,223,220)" stroke-width="1" opacity="1" d="M 1023.5 370 L 1024 378.5 L 1023 378.5 L 1023.5 370 Z " /><path fill="rgb(165,223,220)" stroke="rgb(165,223,220)" stroke-width="1" opacity="1" d="M 113.5 390 L 115 395 L 177 418.5 L 175.5 418 L 114 394.5 L 113.5 390 Z " /><path fill="rgb(165,223,220)" stroke="rgb(165,223,220)" stroke-width="1" opacity="1" d="M 223.5 400 L 225 401.5 L 221.5 403 L 178.5 418 L 178.5 417 L 223.5 400 Z " /><path fill="rgb(165,223,220)" stroke="rgb(165,223,220)" stroke-width="1" opacity="1" d="M 813.5 401 L 858 417.5 L 854.5 418 L 813.5 401 Z " /><path fill="rgb(165,223,220)" stroke="rgb(165,223,220)" stroke-width="1" opacity="1" d="M 238.5 448 L 240 451.5 L 239 451.5 L 238.5 448 Z " /><path fill="rgb(165,223,220)" stroke="rgb(165,223,220)" stroke-width="1" opacity="1" d="M 402.5 564 L 406 566.5 L 404.5 566 L 402.5 564 Z " /><path fill="rgb(165,223,220)" stroke="rgb(165,223,220)" stroke-width="1" opacity="1" d="M 651.5 569 Q 655.3 570.3 654 576.5 L 653 576.5 L 651.5 569 Z " /><path fill="rgb(165,223,220)" stroke="rgb(165,223,220)" stroke-width="1" opacity="1" d="M 413.5 575 L 414 587.5 L 413 587.5 L 413.5 575 Z " /><path fill="rgb(165,223,220)" stroke="rgb(165,223,220)" stroke-width="1" opacity="1" d="M 459 575 L 463 575.5 L 460 576 L 459.5 579 L 459 575 Z " /><path fill="rgb(165,223,220)" stroke="rgb(165,223,220)" stroke-width="1" opacity="1" d="M 618.5 575 L 619 587.5 L 618 587.5 L 618.5 575 Z " /><path fill="rgb(165,223,220)" stroke="rgb(165,223,220)" stroke-width="1" opacity="1" d="M 623.5 575 L 624 587.5 L 623 587.5 L 623.5 575 Z " /><path fill="rgb(165,223,220)" stroke="rgb(165,223,220)" stroke-width="1" opacity="1" d="M 482.5 577 L 488 577.5 L 482.5 578 L 482.5 577 Z " /><path fill="rgb(165,223,220)" stroke="rgb(165,223,220)" stroke-width="1" opacity="1" d="M 548.5 577 L 556 577.5 L 548.5 578 L 548.5 577 Z " /><path fill="rgb(165,223,220)" stroke="rgb(165,223,220)" stroke-width="1" opacity="1" d="M 504.5 578 L 536 578.5 L 504.5 579 L 504.5 578 Z " /><path fill="rgb(165,223,220)" stroke="rgb(165,223,220)" stroke-width="1" opacity="1" d="M 653.5 578 L 654 586.5 L 653 586.5 L 653.5 578 Z " /><path fill="rgb(165,223,220)" stroke="rgb(165,223,220)" stroke-width="1" opacity="1" d="M 448.5 580 L 449 585.5 L 448 585.5 L 448.5 580 Z " /><path fill="rgb(165,223,220)" stroke="rgb(165,223,220)" stroke-width="1" opacity="1" d="M 425.5 592 L 429 594.5 L 427.5 594 L 425.5 592 Z " /><path fill="rgb(165,223,220)" stroke="rgb(165,223,220)" stroke-width="1" opacity="1" d="M 570.5 603 L 572 619.5 L 570 618.5 L 570.5 603 Z " /><path fill="rgb(165,223,220)" stroke="rgb(165,223,220)" stroke-width="1" opacity="1" d="M 427.5 609 L 429 624.5 L 427 623.5 L 427.5 609 Z " /><path fill="rgb(242,243,237)" stroke="rgb(242,243,237)" stroke-width="1" opacity="1" d="M 0 0 L 1022.5 0 L 1023 7.5 L 1024 9.5 L 1023 18.5 L 1023 20.5 L 1024 27.5 L 1023 29.5 L 1023 31.5 L 1024 42.5 L 1023 45.5 L 1024 54.5 L 1023 57.5 L 1024 66.5 L 1023 69.5 L 1024 78.5 L 1023 81.5 L 1024 90.5 L 1023 93.5 L 1024 95.5 L 1024 97.5 L 1023 102.5 L 1024 105.5 L 1023 114.5 L 1024 116.5 L 1023 119.5 L 1024 123.5 L 1023 125.5 L 1023 127.5 L 1024 135.5 L 1023 137.5 L 1023 139.5 L 1024 150.5 L 1023 153.5 L 1024 159.5 L 1023 161.5 L 1023 163.5 L 1024 171.5 L 1023 173.5 L 1023 175.5 L 1024 186.5 L 1023 189.5 L 1024 198.5 L 1023 201.5 L 1024 207.5 L 1023 210.5 L 1024 213.5 L 1023 216.5 L 1024 219.5 L 1023 225.5 L 1024 233.5 L 1023 237.5 L 1024 239.5 L 1023 246.5 L 1024 249.5 L 1023 252.5 L 1024 258.5 L 1023 261.5 L 1024 270.5 L 1023 273.5 L 1024 279.5 L 1023 281.5 L 1023 283.5 L 1024 297.5 L 1023 318.5 L 1024 321.5 L 1023 330.5 L 1024 333.5 L 1023 342.5 L 1024 345.5 L 1023 351.5 L 1024 353.5 L 1023 357.5 L 1024 359.5 L 1023 366.5 L 1024 369.5 L 1023 378.5 L 1024 380.5 L 1023 383.5 L 1024 390.5 L 1023 393.5 L 1024 402.5 L 1023 405.5 L 1024 414.5 L 1023 417.5 L 1024 426.5 L 1023 429.5 L 1024 438.5 L 1023 441.5 L 1024 450.5 L 1023 453.5 L 1024 462.5 L 1023 465.5 L 1024 474.5 L 1023 477.5 L 1024 486.5 L 1023 489.5 L 1024 495.5 L 1023 498.5 L 1024 500.5 L 1023 503.5 L 1024 507.5 L 1023 509.5 L 1023 511.5 L 1024 522.5 L 1023 525.5 L 1024 534.5 L 1023 537.5 L 1024 546.5 L 1023 549.5 L 1024 559.5 L 1024 561.5 L 1023 573.5 L 1024 582.5 L 1023 585.5 L 1024 594.5 L 1023 597.5 L 1024 606.5 L 1023 609.5 L 1024 615.5 L 1023 617.5 L 1023 619.5 L 1024 630.5 L 1023 633.5 L 1024 642.5 L 1023 644.5 L 1024 655.5 L 1024 657.5 L 1023.5 695 L 0 695 L 0 0 Z M 360 42 L 354 44 Q 344 49 344 64 L 345 86 L 349 93 L 360 98 L 388 97 L 421 116 L 445 188 L 425 189 L 413 176 L 408 172 L 398 161 L 396 159 L 384 148 L 382 146 L 351 124 Q 339 117 322 116 Q 297 117 285 129 Q 263 149 251 179 Q 238 209 230 245 Q 232 249 228 248 L 226 245 L 112 166 L 105 167 L 53 193 L 51 195 L 123 238 L 124 241 L 157 259 L 161 261 L 222 299 L 221 303 L 150 259 L 137 254 L 140 270 L 139 272 L 142 277 L 155 331 L 165 334 L 207 337 L 209 337 L 219 338 L 220 341 L 219 343 L 202 341 L 200 341 L 171 338 L 160 339 L 161 341 L 172 350 L 179 360 L 182 361 L 184 365 L 187 366 L 220 366 L 220 370 L 196 371 L 186 370 L 180 363 L 152 338 L 103 352 L 114 395 L 177 419 L 224 401 Q 234 458 266 495 Q 297 529 344 548 L 370 595 L 399 612 L 416 602 L 426 607 L 427 609 L 427 624 L 450 637 L 473 625 L 493 637 L 500 637 L 513 653 L 526 652 L 535 639 L 546 636 L 562 625 L 586 638 L 608 625 L 610 614 L 609 610 L 621 602 L 639 612 L 665 597 L 691 550 Q 732 532 762 504 Q 801 466 813 401 L 855 418 L 870 416 L 921 396 L 924 392 L 933 360 L 933 352 L 888 337 L 880 343 L 878 345 L 875 347 L 870 353 L 861 360 L 860 361 L 853 369 L 845 371 L 842 370 L 836 371 L 832 370 L 817 371 L 816 367 L 819 366 L 849 366 L 856 361 L 858 359 L 860 356 L 872 345 L 876 340 Q 876 336 869 338 L 867 338 L 856 340 L 854 339 L 823 342 Q 814 345 817 337 L 821 338 L 825 337 L 829 338 L 858 335 L 860 335 L 879 333 L 882 330 L 899 257 L 899 254 L 816 304 L 815 297 L 822 295 L 825 294 L 825 292 L 977 201 L 979 199 L 986 195 L 930 166 L 920 169 L 885 194 L 883 196 L 808 249 Q 800 211 786 180 Q 776 153 758 135 Q 745 118 717 116 Q 690 118 675 131 Q 640 157 612 189 L 592 188 L 615 118 L 647 97 L 651 98 L 678 98 L 686 94 L 692 83 Q 695 61 689 50 L 679 42 L 651 42 L 644 45 Q 634 51 636 69 L 593 96 L 589 101 L 561 187 L 547 186 L 477 187 L 446 97 L 402 70 L 400 56 L 395 46 L 387 42 L 360 42 Z M 48 200 L 50 214 L 75 292 L 139 329 L 151 333 L 131 250 L 79 217 L 76 215 L 48 200 Z M 988 200 L 910 246 L 906 250 L 900 271 L 886 333 L 893 332 L 958 295 L 962 291 L 988 206 L 988 200 Z " /><path fill="rgb(242,243,237)" stroke="rgb(242,243,237)" stroke-width="1" opacity="1" d="M 638.5 562 L 653 571.5 L 654 577.5 L 653 586.5 L 652.5 589 L 637.5 597 L 624 589 L 623 572.5 L 638.5 562 Z " /><path fill="rgb(242,243,237)" stroke="rgb(242,243,237)" stroke-width="1" opacity="1" d="M 396.5 563 L 413 571.5 L 413 588.5 L 411.5 589 L 397.5 597 L 383 587.5 L 384 584.5 L 383 572.5 L 396.5 563 Z " /><path fill="rgb(242,243,237)" stroke="rgb(242,243,237)" stroke-width="1" opacity="1" d="M 432.5 563 L 449 572.5 L 448 585.5 L 449 587.5 L 433.5 597 L 419 589 L 419 571.5 L 420.5 570 L 432.5 563 Z " /><path fill="rgb(242,243,237)" stroke="rgb(242,243,237)" stroke-width="1" opacity="1" d="M 601.5 563 L 618 571.5 L 618 588.5 L 616.5 589 L 602.5 597 L 588 587.5 L 588 571.5 L 589.5 571 L 601.5 563 Z " /><path fill="rgb(242,243,237)" stroke="rgb(242,243,237)" stroke-width="1" opacity="1" d="M 460 576 Q 494.9 580 535.5 579 L 577 576 L 578 580.5 L 566 601 L 471.5 601 L 471 599.5 L 459 579.5 L 460 576 Z " /><path fill="rgb(242,243,237)" stroke="rgb(242,243,237)" stroke-width="1" opacity="1" d="M 449.5 594 L 466 602.5 L 466 618.5 L 464.5 620 L 450.5 628 L 436 618.5 L 436 602.5 L 437.5 601 L 449.5 594 Z " /><path fill="rgb(242,243,237)" stroke="rgb(242,243,237)" stroke-width="1" opacity="1" d="M 583.5 594 L 587.5 594 L 601 602.5 L 601 618.5 L 599.5 620 L 585.5 628 L 571 618.5 L 571 602.5 L 572.5 601 L 583.5 594 Z " /><path fill="rgb(242,243,237)" stroke="rgb(242,243,237)" stroke-width="1" opacity="1" d="M 476.5 607 L 561 607.5 L 541.5 627 L 494.5 627 L 476.5 607 Z " /><path fill="rgb(242,243,237)" stroke="rgb(242,243,237)" stroke-width="1" opacity="1" d="M 509.5 632 L 528 632.5 L 518.5 647 L 517 645.5 L 509.5 632 Z " /></svg>